<?xml version="1.0" encoding="UTF-8"?>
<svg id="line" xmlns="http://www.w3.org/2000/svg" viewBox="0 0 1600.35 1600.35">
  <defs>
    <style>
      .cls-1 {
        fill: #fff;
      }

      .cls-2 {
        fill: #005178;
      }
    </style>
  </defs>
  <circle class="cls-2" cx="800.17" cy="800.17" r="800.17"/>
  <g>
    <path class="cls-1" d="M964.19,799.81c0,90.65-73.74,164.39-164.39,164.39-21.69,0-42.78-4.16-62.67-12.38-29.61-12.49-54.83-33.34-72.95-60.3-18.51-27.54-28.29-59.69-28.29-92.95v-11.32c2.15-28.43,11.73-55.93,27.73-79.53,6.58-9.72,14.18-18.69,22.63-26.74l34.94,35.18v84.01c0,21.24,8.3,41.17,23.37,56.13,14.93,14.82,34.69,22.96,55.71,22.96h.61c43.27-.32,78.48-36.23,78.48-80.04v-83.21l34.46-34.7c31.8,30.49,50.37,72.92,50.37,118.5Z"/>
    <path class="cls-1" d="M384.15,389.68c-31.38,31.78-59.07,67.09-82.39,105.09-20.45,33.29-37.6,68.77-50.96,105.46-15.24,41.88-25.64,85.54-30.94,129.91l315.15,33.12c2.57-18.66,7.12-37.01,13.56-54.66,6.1-16.78,13.95-33.04,23.34-48.31,9.85-16.04,21.37-31.02,34.33-44.62l-222.09-225.99ZM510.71,619.81l-1.33,2.18c-11.93,19.41-21.93,40.11-29.73,61.52l-3.08,8.45-159.95-58.21,3.08-8.46c12.31-33.83,28.63-64.2,44.42-91.98l1.24-2.18,2.19-1.22c4.6-2.58,7.46-.83,13.15,2.66l130.01,79.66v7.58Z"/>
    <path class="cls-1" d="M1051.78,891.75c-6.1,16.78-13.95,33.04-23.34,48.31-9.85,16.04-21.38,31.02-34.34,44.62l222.09,225.99c29.25-29.62,55.3-62.33,77.61-97.45l-204.18-125.12v-7.58l1.33-2.18c11.96-19.46,21.96-40.16,29.72-61.52l3.08-8.46,228.8,83.27c13.61-39.28,22.98-80.04,27.92-121.43l-315.15-33.12c-2.58,18.66-7.12,37-13.55,54.65Z"/>
    <path class="cls-1" d="M885.13,1054.1c-16.96,5.67-34.58,9.64-52.35,11.79-21.48,2.62-43.73,2.62-65.23,0-17.77-2.15-35.38-6.11-52.35-11.79-17.83-5.96-35.02-13.82-51.21-23.42l-170.27,267.28c35.47,21.88,73.22,39.92,112.43,53.71l77.26-230.89,8.54,2.86c21.57,7.22,43.99,12.27,66.64,15.02l8.95,1.08-40.5,329.93c24.2,2.61,48.77,3.93,73.16,3.93s48.96-1.32,73.1-3.92l-40.5-329.94,8.95-1.08c22.66-2.75,45.08-7.8,66.64-15.02l8.54-2.86,77.26,230.89c39.22-13.79,76.96-31.83,112.43-53.71l-170.27-267.28c-16.2,9.59-33.39,17.46-51.22,23.42Z"/>
    <path class="cls-1" d="M706.72,549.25l-38.68-115.61,8.53-2.86c24.64-8.25,50.26-14.02,76.15-17.16,31.17-3.81,63.73-3.82,94.92,0,25.88,3.14,51.5,8.91,76.13,17.16l8.53,2.86-38.68,115.61c14.8,5.52,29.11,12.35,42.73,20.42l170.27-267.27c-35.46-21.89-73.21-39.92-112.43-53.72l-38.62,115.42-8.54-2.86c-29.09-9.74-59.33-16.57-89.91-20.31h0l-.55-.07c-18.56-2.27-37.53-3.41-56.4-3.41s-37.84,1.15-56.4,3.41l-.55.07c-30.58,3.75-60.82,10.58-89.91,20.31l-8.54,2.86-38.62-115.42c-39.22,13.8-76.97,31.83-112.43,53.72l170.27,267.27c13.61-8.06,27.93-14.9,42.73-20.42Z"/>
    <path class="cls-1" d="M832.79,460.73c-21.54-2.05-43.68-2.04-65.22,0l32.61,265.6,32.61-265.6Z"/>
    <path class="cls-1" d="M800.17,289.01c17.83,0,35.74.92,53.36,2.75l19.77-161.01c-24.12-2.61-48.66-3.92-73.1-3.92s-48.96,1.32-73.16,3.93l19.77,161c17.63-1.83,35.53-2.75,53.36-2.75Z"/>
    <path class="cls-1" d="M1133.85,599.27c4.07-11.31,11.87-21.34,22.85-28.07l74.73-45.8,4.7,7.68c17.83,29.1,32.78,60.16,44.44,92.31l3.06,8.45-159.93,58.21-3.07-8.47c-7.79-21.47-17.76-42.18-29.64-61.55-12.92-21.1-28.19-40.79-45.46-58.63l-51.41,52.31c13,13.63,24.53,28.61,34.34,44.64,9.34,15.22,17.17,31.48,23.28,48.34,6.42,17.7,10.96,36.04,13.54,54.64l315.12-33.12c-5.34-44.34-15.74-88-30.96-129.9-13.32-36.73-30.41-72.24-50.81-105.54l-4.7-7.67,75.8-46.44c-26.05-41.26-56.65-79.68-91.15-114.42l-199.1,202.6c20.08,20.62,37.81,43.43,52.8,67.88.52.85,1.04,1.7,1.55,2.56Z"/>
    <path class="cls-1" d="M571.85,940.12c-9.34-15.22-17.17-31.49-23.28-48.34-6.42-17.7-10.96-36.04-13.54-54.64l-403.57,42.42c5.75,48.56,16.77,96.43,32.81,142.54l83.53-30.41,3.07,8.47c13.33,36.77,30.42,72.28,50.81,105.53,11.64,19,24.39,37.33,38.15,54.88,13.76,17.55,28.54,34.32,44.26,50.21l222.1-226.02c-13-13.63-24.53-28.61-34.34-44.64ZM368.89,1075.06l-4.7-7.68c-17.83-29.1-32.78-60.16-44.44-92.31l-3.07-8.45,159.94-58.21,3.07,8.47c7.76,21.42,17.73,42.13,29.63,61.56l4.7,7.68-145.13,88.94Z"/>
  </g>
</svg>